<svg width="217" height="56" viewBox="0 0 217 56" fill="none" xmlns="http://www.w3.org/2000/svg">
<path d="M18.9693 1.285C9.82704 4.50361 3.38982 11.2832 0.753292 20.5624C0.102722 22.7538 0 24.055 0 27.8557C0.0342406 31.8618 0.171203 32.889 0.958736 35.5598C3.69798 44.5993 10.7515 51.7213 19.8253 54.5633C23.5233 55.7275 30.1317 55.8987 34.2063 54.94C43.5882 52.6801 51.1554 45.9004 54.2713 36.8609C55.1273 34.3271 55.0931 33.2657 54.1343 32.3754C53.0729 31.3824 52.2169 31.4167 49.82 32.6151C45.6084 34.7723 40.1299 35.3544 35.5759 34.1902C28.4881 32.3754 22.9069 26.5545 21.1607 19.1243C20.2019 14.9812 20.9895 9.53697 23.1809 5.4281C24.345 3.27095 24.345 2.68886 23.1124 1.4562C21.914 0.29202 21.8455 0.29202 18.9693 1.285ZM21.8455 2.79158C21.9482 2.96278 21.6058 3.92152 21.1264 4.94874C19.5856 8.27007 18.9693 10.4957 18.7296 13.5431C18.1133 22.5141 22.8042 30.5264 31.1932 34.738C34.3775 36.3473 36.6716 36.8609 40.712 36.8609C44.1361 36.8609 46.5329 36.3131 50.2309 34.6353C51.4978 34.0532 52.6277 33.6766 52.7647 33.7793C53.0729 34.1217 52.2853 36.5185 50.95 39.2578C47.971 45.4211 42.561 50.1463 35.9184 52.3719C33.7954 53.091 32.2889 53.3306 29.2414 53.4676C20.921 53.81 14.4838 51.242 8.93679 45.3184C-1.23266 34.4641 -0.205443 17.5835 11.1967 7.99615C13.6962 5.87323 16.5382 4.22968 19.4144 3.20247C21.5373 2.44917 21.6058 2.44917 21.8455 2.79158Z" fill="black"/>
<path d="M11.8815 42.4764C10.6488 42.9558 12.1554 44.7705 15.7164 47.1331C17.7024 48.4343 21.2976 49.8381 22.0852 49.5984C22.9069 49.3245 22.9412 48.0919 22.1536 47.8179C20.1335 47.1674 15.8191 44.8048 14.381 43.6406C12.7033 42.2025 12.6005 42.1682 11.8815 42.4764Z" fill="black"/>
<path d="M69.1317 24.5001C69.029 24.7398 68.9947 30.8004 69.029 37.9566L69.1317 50.968H77.1782H85.2247V49.7696V48.5712L78.8218 48.4685L72.3845 48.4L72.316 36.3131L72.2133 24.2604L70.741 24.1577C69.7822 24.0892 69.2344 24.1919 69.1317 24.5001Z" fill="black"/>
<path d="M103.27 33.9163C103.372 43.3666 103.406 43.846 104.16 45.4896C105.975 49.4615 109.33 51.4817 114.124 51.4817C118.027 51.4817 120.047 50.7626 122.17 48.6397C125.081 45.6608 125.218 45.0102 125.389 33.745L125.526 24.0892H123.951H122.376V32.6493C122.376 42.0313 122.136 43.9145 120.629 45.9689C119.191 47.9891 117.274 48.8794 114.329 48.8794C110.734 48.8794 108.44 47.4755 107.07 44.4623C106.557 43.2982 106.42 41.7573 106.283 33.6766L106.111 24.2604L104.639 24.1577L103.167 24.055L103.27 33.9163Z" fill="black"/>
<path d="M145.831 24.5343C145.728 24.7398 145.694 30.8004 145.728 37.9566L145.831 50.968L147.337 51.0708L148.809 51.1735L148.672 39.5317C148.57 28.7459 148.604 27.8899 149.118 28.472C149.426 28.7802 153.637 34.019 158.465 40.1138L167.265 51.1735L168.874 51.0708L170.484 50.968V37.6142V24.2604L169.011 24.1577L167.539 24.055L167.642 35.5256C167.71 41.8601 167.676 47.0304 167.573 46.9961C167.471 46.9961 163.259 41.8258 158.226 35.5256L149.049 24.0892H147.508C146.618 24.0892 145.899 24.2604 145.831 24.5343Z" fill="black"/>
<path d="M200.684 25.0137C199.999 26.3491 189.487 50.6941 189.487 50.9338C189.487 51.0365 190.172 51.1393 190.994 51.1393H192.466L194.384 46.5853L196.267 42.0655H202.704H209.141L211.059 46.5168L212.976 50.968L214.586 51.0708C215.476 51.1393 216.195 51.1393 216.195 51.0708C216.195 51.0023 213.593 44.9417 210.442 37.6142L204.69 24.2604L202.91 24.1577C201.3 24.055 201.129 24.1234 200.684 25.0137ZM205.615 33.5054C206.916 36.6555 207.977 39.292 207.977 39.3605C207.977 39.429 205.683 39.4975 202.841 39.4975C198.732 39.4975 197.705 39.3947 197.705 39.0181C197.705 38.7784 198.63 36.3473 199.794 33.6423C200.924 30.9373 202.019 28.335 202.191 27.8899C202.43 27.3078 202.636 27.1709 202.875 27.4105C203.081 27.616 204.313 30.3552 205.615 33.5054Z" fill="black"/>
</svg>
